<svg width="300" height="149" viewBox="0 0 300 149" fill="none" xmlns="http://www.w3.org/2000/svg">
<path d="M154.06 60.824C155.548 61.304 156.676 62.048 157.444 63.056C158.236 64.064 158.632 65.312 158.632 66.8C158.632 69.032 157.756 70.796 156.004 72.092C154.276 73.364 151.816 74 148.624 74H135.7V48.8H147.94C150.964 48.8 153.304 49.376 154.96 50.528C156.64 51.656 157.48 53.264 157.48 55.352C157.48 56.576 157.18 57.656 156.58 58.592C156.004 59.528 155.164 60.272 154.06 60.824ZM142.72 58.88H147.256C149.272 58.88 150.28 58.052 150.28 56.396C150.28 54.74 149.272 53.912 147.256 53.912H142.72V58.88ZM148.336 68.888C150.4 68.888 151.432 68.012 151.432 66.26C151.432 64.556 150.4 63.704 148.336 63.704H142.72V68.888H148.336ZM181.857 64.28C181.857 64.328 181.821 64.892 181.749 65.972H167.565C167.853 66.98 168.405 67.76 169.221 68.312C170.061 68.84 171.105 69.104 172.353 69.104C173.289 69.104 174.093 68.972 174.765 68.708C175.461 68.444 176.157 68.012 176.853 67.412L180.453 71.156C178.557 73.268 175.785 74.324 172.137 74.324C169.857 74.324 167.853 73.892 166.125 73.028C164.397 72.164 163.053 70.964 162.093 69.428C161.157 67.892 160.689 66.152 160.689 64.208C160.689 62.288 161.145 60.572 162.057 59.06C162.993 57.524 164.277 56.324 165.909 55.46C167.541 54.596 169.377 54.164 171.417 54.164C173.361 54.164 175.125 54.572 176.709 55.388C178.293 56.18 179.541 57.344 180.453 58.88C181.389 60.392 181.857 62.192 181.857 64.28ZM171.453 59.024C170.397 59.024 169.509 59.324 168.789 59.924C168.093 60.524 167.649 61.34 167.457 62.372H175.449C175.257 61.34 174.801 60.524 174.081 59.924C173.385 59.324 172.509 59.024 171.453 59.024ZM197.748 54.164C199.524 54.164 201.132 54.584 202.572 55.424C204.036 56.24 205.188 57.416 206.028 58.952C206.892 60.464 207.324 62.228 207.324 64.244C207.324 66.26 206.892 68.036 206.028 69.572C205.188 71.084 204.036 72.26 202.572 73.1C201.132 73.916 199.524 74.324 197.748 74.324C195.468 74.324 193.656 73.64 192.312 72.272V80.984H185.472V54.488H191.988V56.432C193.26 54.92 195.18 54.164 197.748 54.164ZM196.308 68.888C197.508 68.888 198.492 68.48 199.26 67.664C200.028 66.824 200.412 65.684 200.412 64.244C200.412 62.804 200.028 61.676 199.26 60.86C198.492 60.02 197.508 59.6 196.308 59.6C195.108 59.6 194.124 60.02 193.356 60.86C192.588 61.676 192.204 62.804 192.204 64.244C192.204 65.684 192.588 66.824 193.356 67.664C194.124 68.48 195.108 68.888 196.308 68.888ZM220.401 74.324C218.241 74.324 216.309 73.892 214.605 73.028C212.901 72.164 211.569 70.964 210.609 69.428C209.673 67.892 209.205 66.152 209.205 64.208C209.205 62.264 209.673 60.536 210.609 59.024C211.569 57.488 212.901 56.3 214.605 55.46C216.309 54.596 218.241 54.164 220.401 54.164C222.609 54.164 224.517 54.644 226.125 55.604C227.733 56.54 228.873 57.848 229.545 59.528L224.253 62.228C223.365 60.476 222.069 59.6 220.365 59.6C219.141 59.6 218.121 60.008 217.305 60.824C216.513 61.64 216.117 62.768 216.117 64.208C216.117 65.672 216.513 66.824 217.305 67.664C218.121 68.48 219.141 68.888 220.365 68.888C222.069 68.888 223.365 68.012 224.253 66.26L229.545 68.96C228.873 70.64 227.733 71.96 226.125 72.92C224.517 73.856 222.609 74.324 220.401 74.324ZM240.362 54.164C243.602 54.164 246.074 54.908 247.778 56.396C249.482 57.86 250.334 60.116 250.334 63.164V74H243.962V71.48C242.978 73.376 241.058 74.324 238.202 74.324C236.69 74.324 235.382 74.06 234.278 73.532C233.174 73.004 232.334 72.296 231.758 71.408C231.206 70.496 230.93 69.464 230.93 68.312C230.93 66.464 231.638 65.036 233.054 64.028C234.47 62.996 236.654 62.48 239.606 62.48H243.494C243.374 60.416 241.994 59.384 239.354 59.384C238.418 59.384 237.47 59.54 236.51 59.852C235.55 60.14 234.734 60.548 234.062 61.076L231.758 56.432C232.838 55.712 234.146 55.16 235.682 54.776C237.242 54.368 238.802 54.164 240.362 54.164ZM240.11 70.004C240.902 70.004 241.598 69.812 242.198 69.428C242.798 69.044 243.23 68.48 243.494 67.736V66.044H240.542C238.55 66.044 237.554 66.704 237.554 68.024C237.554 68.624 237.782 69.104 238.238 69.464C238.694 69.824 239.318 70.004 240.11 70.004ZM274.321 54.488V74H267.481V59.924H262.549L262.405 62.912C262.309 65.456 262.057 67.556 261.649 69.212C261.241 70.868 260.569 72.164 259.633 73.1C258.697 74.012 257.413 74.468 255.781 74.468C254.941 74.468 253.837 74.312 252.469 74L252.757 68.42C253.189 68.468 253.477 68.492 253.621 68.492C254.365 68.492 254.929 68.252 255.313 67.772C255.697 67.292 255.961 66.656 256.105 65.864C256.249 65.048 256.345 63.968 256.393 62.624L256.681 54.488H274.321ZM290.365 60.536C292.957 60.56 294.937 61.136 296.305 62.264C297.673 63.392 298.357 65 298.357 67.088C298.357 69.248 297.565 70.952 295.981 72.2C294.421 73.424 292.261 74.024 289.501 74H278.917V54.488H285.721V60.536H290.365ZM288.817 69.32C290.545 69.32 291.409 68.54 291.409 66.98C291.409 66.212 291.193 65.648 290.761 65.288C290.329 64.928 289.681 64.736 288.817 64.712H285.721V69.284L288.817 69.32Z" fill="#1E87F0"/>
<path d="M154.06 60.824L153.613 59.9296L151.423 61.0242L153.753 61.7757L154.06 60.824ZM157.444 63.056L156.649 63.662L156.653 63.668L156.658 63.6738L157.444 63.056ZM156.004 72.092L156.597 72.8973L156.599 72.8959L156.004 72.092ZM135.7 74H134.7V75H135.7V74ZM135.7 48.8V47.8H134.7V48.8H135.7ZM154.96 50.528L154.389 51.3489L154.396 51.3536L154.403 51.3582L154.96 50.528ZM156.58 58.592L155.738 58.0523L155.733 58.0601L155.728 58.0679L156.58 58.592ZM142.72 58.88H141.72V59.88H142.72V58.88ZM142.72 53.912V52.912H141.72V53.912H142.72ZM142.72 63.704V62.704H141.72V63.704H142.72ZM142.72 68.888H141.72V69.888H142.72V68.888ZM153.753 61.7757C155.093 62.2078 156.031 62.851 156.649 63.662L158.239 62.45C157.321 61.245 156.003 60.4002 154.367 59.8723L153.753 61.7757ZM156.658 63.6738C157.29 64.4782 157.632 65.4984 157.632 66.8H159.632C159.632 65.1256 159.182 63.6498 158.23 62.4382L156.658 63.6738ZM157.632 66.8C157.632 68.724 156.899 70.1859 155.409 71.2881L156.599 72.8959C158.613 71.4061 159.632 69.34 159.632 66.8H157.632ZM155.411 71.2867C153.92 72.384 151.702 73 148.624 73V75C151.93 75 154.632 74.344 156.597 72.8973L155.411 71.2867ZM148.624 73H135.7V75H148.624V73ZM136.7 74V48.8H134.7V74H136.7ZM135.7 49.8H147.94V47.8H135.7V49.8ZM147.94 49.8C150.856 49.8 152.965 50.3584 154.389 51.3489L155.531 49.7071C153.643 48.3936 151.072 47.8 147.94 47.8V49.8ZM154.403 51.3582C155.796 52.2935 156.48 53.5845 156.48 55.352H158.48C158.48 52.9435 157.484 51.0185 155.517 49.6978L154.403 51.3582ZM156.48 55.352C156.48 56.4047 156.225 57.2935 155.738 58.0523L157.422 59.1317C158.135 58.0185 158.48 56.7473 158.48 55.352H156.48ZM155.728 58.0679C155.262 58.8262 154.571 59.4504 153.613 59.9296L154.507 61.7184C155.757 61.0936 156.746 60.2298 157.432 59.1161L155.728 58.0679ZM142.72 59.88H147.256V57.88H142.72V59.88ZM147.256 59.88C148.376 59.88 149.401 59.6541 150.159 59.0317C150.954 58.3784 151.28 57.4357 151.28 56.396H149.28C149.28 57.0123 149.102 57.3116 148.889 57.4863C148.639 57.6919 148.152 57.88 147.256 57.88V59.88ZM151.28 56.396C151.28 55.3563 150.954 54.4136 150.159 53.7603C149.401 53.1379 148.376 52.912 147.256 52.912V54.912C148.152 54.912 148.639 55.1001 148.889 55.3057C149.102 55.4804 149.28 55.7797 149.28 56.396H151.28ZM147.256 52.912H142.72V54.912H147.256V52.912ZM141.72 53.912V58.88H143.72V53.912H141.72ZM148.336 69.888C149.486 69.888 150.535 69.6475 151.305 68.9934C152.107 68.3126 152.432 67.337 152.432 66.26H150.432C150.432 66.935 150.241 67.2734 150.011 67.4686C149.749 67.6905 149.25 67.888 148.336 67.888V69.888ZM152.432 66.26C152.432 65.198 152.101 64.2377 151.295 63.5718C150.525 62.9363 149.481 62.704 148.336 62.704V64.704C149.255 64.704 149.759 64.8977 150.021 65.1142C150.247 65.3003 150.432 65.618 150.432 66.26H152.432ZM148.336 62.704H142.72V64.704H148.336V62.704ZM141.72 63.704V68.888H143.72V63.704H141.72ZM142.72 69.888H148.336V67.888H142.72V69.888ZM181.749 65.972V66.972H182.685L182.747 66.0385L181.749 65.972ZM167.565 65.972V64.972H166.239L166.604 66.2467L167.565 65.972ZM169.221 68.312L168.661 69.1403L168.675 69.1497L168.689 69.1586L169.221 68.312ZM174.765 68.708L174.41 67.7729L174.399 67.7772L174.765 68.708ZM176.853 67.412L177.574 66.7189L176.917 66.0362L176.2 66.6546L176.853 67.412ZM180.453 71.156L181.197 71.824L181.818 71.1326L181.174 70.4629L180.453 71.156ZM166.125 73.028L166.572 72.1336L166.125 73.028ZM162.093 69.428L161.239 69.9484L161.245 69.958L162.093 69.428ZM162.057 59.06L161.203 58.5396L161.201 58.5435L162.057 59.06ZM165.909 55.46L165.441 54.5762V54.5762L165.909 55.46ZM176.709 55.388L176.251 56.277L176.262 56.2824L176.709 55.388ZM180.453 58.88L179.593 59.3905L179.598 59.3985L179.603 59.4064L180.453 58.88ZM168.789 59.924L168.149 59.1558L168.142 59.1611L168.136 59.1666L168.789 59.924ZM167.457 62.372L166.474 62.1891L166.254 63.372H167.457V62.372ZM175.449 62.372V63.372H176.652L176.432 62.1891L175.449 62.372ZM174.081 59.924L173.428 60.6814L173.434 60.6869L173.441 60.6922L174.081 59.924ZM180.857 64.28C180.857 64.262 180.852 64.3636 180.832 64.6753C180.814 64.9559 180.787 65.3657 180.751 65.9055L182.747 66.0385C182.816 64.9955 182.857 64.3722 182.857 64.28H180.857ZM181.749 64.972H167.565V66.972H181.749V64.972ZM166.604 66.2467C166.952 67.465 167.637 68.4478 168.661 69.1403L169.781 67.4837C169.173 67.0722 168.755 66.495 168.527 65.6973L166.604 66.2467ZM168.689 69.1586C169.725 69.8097 170.965 70.104 172.353 70.104V68.104C171.245 68.104 170.397 67.8703 169.753 67.4654L168.689 69.1586ZM172.353 70.104C173.379 70.104 174.313 69.9599 175.131 69.6388L174.399 67.7772C173.873 67.9841 173.199 68.104 172.353 68.104V70.104ZM175.12 69.643C175.947 69.3292 176.742 68.8283 177.506 68.1694L176.2 66.6546C175.572 67.1957 174.975 67.5588 174.41 67.773L175.12 69.643ZM176.132 68.1051L179.732 71.8491L181.174 70.4629L177.574 66.7189L176.132 68.1051ZM179.709 70.488C178.053 72.332 175.587 73.324 172.137 73.324V75.324C175.983 75.324 179.061 74.204 181.197 71.824L179.709 70.488ZM172.137 73.324C169.984 73.324 168.139 72.9167 166.572 72.1336L165.678 73.9224C167.568 74.8673 169.73 75.324 172.137 75.324V73.324ZM166.572 72.1336C164.997 71.3462 163.797 70.2675 162.941 68.898L161.245 69.958C162.309 71.6605 163.797 72.9818 165.678 73.9224L166.572 72.1336ZM162.947 68.9076C162.114 67.541 161.689 65.9838 161.689 64.208H159.689C159.689 66.3202 160.2 68.243 161.239 69.9484L162.947 68.9076ZM161.689 64.208C161.689 62.4536 162.104 60.9191 162.913 59.5765L161.201 58.5435C160.187 60.2249 159.689 62.1224 159.689 64.208H161.689ZM162.911 59.5804C163.751 58.2023 164.9 57.1259 166.377 56.3438L165.441 54.5762C163.655 55.5221 162.235 56.8457 161.203 58.5396L162.911 59.5804ZM166.377 56.3438C167.85 55.5638 169.523 55.164 171.417 55.164V53.164C169.231 53.164 167.232 53.6281 165.441 54.5762L166.377 56.3438ZM171.417 55.164C173.217 55.164 174.821 55.5404 176.251 56.277L177.167 54.499C175.429 53.6036 173.506 53.164 171.417 53.164V55.164ZM176.262 56.2824C177.673 56.9879 178.778 58.0179 179.593 59.3905L181.313 58.3695C180.304 56.6701 178.913 55.3721 177.156 54.4936L176.262 56.2824ZM179.603 59.4064C180.425 60.7345 180.857 62.3451 180.857 64.28H182.857C182.857 62.0389 182.353 60.0495 181.303 58.3536L179.603 59.4064ZM171.453 58.024C170.195 58.024 169.071 58.387 168.149 59.1558L169.429 60.6922C169.947 60.261 170.6 60.024 171.453 60.024V58.024ZM168.136 59.1666C167.244 59.9358 166.701 60.9671 166.474 62.1891L168.44 62.5549C168.597 61.7129 168.942 61.1122 169.442 60.6814L168.136 59.1666ZM167.457 63.372H175.449V61.372H167.457V63.372ZM176.432 62.1891C176.203 60.9572 175.642 59.923 174.721 59.1558L173.441 60.6922C173.96 61.125 174.311 61.7228 174.466 62.5549L176.432 62.1891ZM174.734 59.1666C173.83 58.387 172.711 58.024 171.453 58.024V60.024C172.307 60.024 172.94 60.261 173.428 60.6814L174.734 59.1666ZM202.572 55.424L202.068 56.2878L202.077 56.2927L202.085 56.2975L202.572 55.424ZM206.028 58.952L205.151 59.4318L205.155 59.44L205.16 59.4481L206.028 58.952ZM206.028 69.572L205.156 69.0817L205.154 69.0864L206.028 69.572ZM202.572 73.1L203.065 73.97L203.07 73.9674L202.572 73.1ZM192.312 72.272L193.025 71.5712L191.312 69.8272V72.272H192.312ZM192.312 80.984V81.984H193.312V80.984H192.312ZM185.472 80.984H184.472V81.984H185.472V80.984ZM185.472 54.488V53.488H184.472V54.488H185.472ZM191.988 54.488H192.988V53.488H191.988V54.488ZM191.988 56.432H190.988V59.174L192.753 57.0758L191.988 56.432ZM199.26 67.664L199.988 68.3494L199.993 68.3441L199.998 68.3388L199.26 67.664ZM199.26 60.86L198.522 61.5348L198.527 61.5401L198.532 61.5454L199.26 60.86ZM193.356 60.86L194.084 61.5454L194.089 61.5401L194.094 61.5348L193.356 60.86ZM193.356 67.664L192.618 68.3388L192.623 68.3441L192.628 68.3494L193.356 67.664ZM197.748 55.164C199.359 55.164 200.791 55.5428 202.068 56.2878L203.076 54.5602C201.473 53.6252 199.689 53.164 197.748 53.164V55.164ZM202.085 56.2975C203.377 57.0175 204.397 58.0535 205.151 59.4318L206.905 58.4722C205.979 56.7785 204.695 55.4625 203.059 54.5505L202.085 56.2975ZM205.16 59.4481C205.925 60.7867 206.324 62.3743 206.324 64.244H208.324C208.324 62.0817 207.859 60.1413 206.896 58.4559L205.16 59.4481ZM206.324 64.244C206.324 66.1133 205.925 67.7158 205.156 69.0817L206.9 70.0623C207.859 68.3562 208.324 66.4067 208.324 64.244H206.324ZM205.154 69.0864C204.4 70.4434 203.376 71.4856 202.074 72.2326L203.07 73.9674C204.696 73.0344 205.976 71.7246 206.902 70.0576L205.154 69.0864ZM202.079 72.23C200.8 72.9546 199.364 73.324 197.748 73.324V75.324C199.684 75.324 201.464 74.8774 203.065 73.97L202.079 72.23ZM197.748 73.324C195.682 73.324 194.146 72.7121 193.025 71.5712L191.599 72.9728C193.166 74.5679 195.254 75.324 197.748 75.324V73.324ZM191.312 72.272V80.984H193.312V72.272H191.312ZM192.312 79.984H185.472V81.984H192.312V79.984ZM186.472 80.984V54.488H184.472V80.984H186.472ZM185.472 55.488H191.988V53.488H185.472V55.488ZM190.988 54.488V56.432H192.988V54.488H190.988ZM192.753 57.0758C193.782 55.8533 195.38 55.164 197.748 55.164V53.164C194.98 53.164 192.738 53.9867 191.223 55.7882L192.753 57.0758ZM196.308 69.888C197.762 69.888 199.017 69.3815 199.988 68.3494L198.532 66.9786C197.967 67.5785 197.254 67.888 196.308 67.888V69.888ZM199.998 68.3388C200.976 67.2693 201.412 65.865 201.412 64.244H199.412C199.412 65.503 199.08 66.3787 198.522 66.9892L199.998 68.3388ZM201.412 64.244C201.412 62.6246 200.976 61.2245 199.988 60.1746L198.532 61.5454C199.08 62.1275 199.412 62.9834 199.412 64.244H201.412ZM199.998 60.1852C199.029 59.1257 197.772 58.6 196.308 58.6V60.6C197.244 60.6 197.955 60.9143 198.522 61.5348L199.998 60.1852ZM196.308 58.6C194.844 58.6 193.587 59.1257 192.618 60.1852L194.094 61.5348C194.661 60.9143 195.372 60.6 196.308 60.6V58.6ZM192.628 60.1746C191.64 61.2245 191.204 62.6246 191.204 64.244H193.204C193.204 62.9834 193.536 62.1275 194.084 61.5454L192.628 60.1746ZM191.204 64.244C191.204 65.865 191.64 67.2693 192.618 68.3388L194.094 66.9892C193.536 66.3787 193.204 65.503 193.204 64.244H191.204ZM192.628 68.3494C193.599 69.3815 194.854 69.888 196.308 69.888V67.888C195.362 67.888 194.649 67.5785 194.084 66.9786L192.628 68.3494ZM214.605 73.028L215.057 72.1361L214.605 73.028ZM210.609 69.428L209.755 69.9484L209.761 69.958L210.609 69.428ZM210.609 59.024L209.761 58.494L209.758 58.4976L210.609 59.024ZM214.605 55.46L215.047 56.357L215.057 56.3519L214.605 55.46ZM226.125 55.604L225.612 56.4627L225.622 56.4682L226.125 55.604ZM229.545 59.528L229.999 60.4188L230.812 60.004L230.473 59.1566L229.545 59.528ZM224.253 62.228L223.361 62.6801L223.814 63.5744L224.707 63.1188L224.253 62.228ZM217.305 60.824L216.598 60.1169L216.592 60.1222L216.587 60.1275L217.305 60.824ZM217.305 67.664L216.577 68.35L216.587 68.3607L216.598 68.3711L217.305 67.664ZM224.253 66.26L224.707 65.3692L223.814 64.9136L223.361 65.8079L224.253 66.26ZM229.545 68.96L230.473 69.3314L230.812 68.484L229.999 68.0692L229.545 68.96ZM226.125 72.92L226.628 73.7843L226.637 73.7786L226.125 72.92ZM220.401 73.324C218.377 73.324 216.603 72.9202 215.057 72.1361L214.152 73.9199C216.014 74.8638 218.104 75.324 220.401 75.324V73.324ZM215.057 72.1361C213.506 71.3497 212.315 70.271 211.457 68.898L209.761 69.958C210.823 71.657 212.295 72.9783 214.152 73.9199L215.057 72.1361ZM211.463 68.9076C210.63 67.541 210.205 65.9838 210.205 64.208H208.205C208.205 66.3202 208.716 68.243 209.755 69.9484L211.463 68.9076ZM210.205 64.208C210.205 62.432 210.63 60.8896 211.459 59.5504L209.758 58.4976C208.716 60.1824 208.205 62.096 208.205 64.208H210.205ZM211.457 59.554C212.313 58.1835 213.501 57.1189 215.047 56.3569L214.163 54.5631C212.3 55.4811 210.824 56.7925 209.761 58.494L211.457 59.554ZM215.057 56.3519C216.603 55.5678 218.377 55.164 220.401 55.164V53.164C218.104 53.164 216.014 53.6242 214.152 54.5681L215.057 56.3519ZM220.401 55.164C222.461 55.164 224.185 55.6105 225.612 56.4626L226.637 54.7454C224.849 53.6775 222.757 53.164 220.401 53.164V55.164ZM225.622 56.4682C227.043 57.2954 228.03 58.4328 228.616 59.8994L230.473 59.1566C229.716 57.2632 228.423 55.7846 226.628 54.7398L225.622 56.4682ZM229.09 58.6372L223.798 61.3372L224.707 63.1188L229.999 60.4188L229.09 58.6372ZM225.145 61.7759C224.643 60.7864 223.995 59.9831 223.175 59.4285C222.347 58.8687 221.398 58.6 220.365 58.6V60.6C221.036 60.6 221.587 60.7693 222.055 61.0855C222.53 61.4069 222.974 61.9176 223.361 62.6801L225.145 61.7759ZM220.365 58.6C218.893 58.6 217.613 59.1011 216.598 60.1169L218.012 61.5311C218.628 60.9149 219.388 60.6 220.365 60.6V58.6ZM216.587 60.1275C215.569 61.1764 215.117 62.5805 215.117 64.208H217.117C217.117 62.9555 217.456 62.1036 218.022 61.5205L216.587 60.1275ZM215.117 64.208C215.117 65.8558 215.567 67.2784 216.577 68.35L218.032 66.978C217.459 66.3696 217.117 65.4882 217.117 64.208H215.117ZM216.598 68.3711C217.613 69.3869 218.893 69.888 220.365 69.888V67.888C219.388 67.888 218.628 67.5731 218.012 66.9569L216.598 68.3711ZM220.365 69.888C221.398 69.888 222.347 69.6193 223.175 69.0595C223.995 68.5049 224.643 67.7016 225.145 66.7121L223.361 65.8079C222.974 66.5704 222.53 67.0811 222.055 67.4025C221.587 67.7187 221.036 67.888 220.365 67.888V69.888ZM223.798 67.1508L229.09 69.8508L229.999 68.0692L224.707 65.3692L223.798 67.1508ZM228.616 68.5886C228.029 70.0575 227.039 71.2096 225.612 72.0614L226.637 73.7786C228.427 72.7104 229.717 71.2225 230.473 69.3314L228.616 68.5886ZM225.622 72.0558C224.193 72.8875 222.465 73.324 220.401 73.324V75.324C222.752 75.324 224.841 74.8245 226.628 73.7842L225.622 72.0558ZM247.778 56.396L247.12 57.1493L247.126 57.1545L247.778 56.396ZM250.334 74V75H251.334V74H250.334ZM243.962 74H242.962V75H243.962V74ZM243.962 71.48H244.962L243.074 71.0194L243.962 71.48ZM234.278 73.532L234.709 72.6299L234.278 73.532ZM231.758 71.408L230.902 71.9258L230.91 71.9391L230.919 71.9522L231.758 71.408ZM233.054 64.028L233.634 64.8427L233.643 64.8361L233.054 64.028ZM243.494 62.48V63.48H244.553L244.492 62.422L243.494 62.48ZM236.51 59.852L236.797 60.8098L236.808 60.8066L236.819 60.803L236.51 59.852ZM234.062 61.076L233.166 61.5204L233.712 62.6221L234.679 61.8623L234.062 61.076ZM231.758 56.432L231.203 55.5999L230.471 56.0881L230.862 56.8764L231.758 56.432ZM235.682 54.776L235.924 55.7462L235.935 55.7435L235.682 54.776ZM242.198 69.428L242.737 70.2703L242.198 69.428ZM243.494 67.736L244.436 68.0704L244.494 67.9082V67.736H243.494ZM243.494 66.044H244.494V65.044H243.494V66.044ZM238.238 69.464L237.618 70.2489L238.238 69.464ZM240.362 55.164C243.463 55.164 245.663 55.8771 247.12 57.1492L248.435 55.6428C246.484 53.9389 243.74 53.164 240.362 53.164V55.164ZM247.126 57.1545C248.537 58.3672 249.334 60.2981 249.334 63.164H251.334C251.334 59.9339 250.426 57.3528 248.429 55.6375L247.126 57.1545ZM249.334 63.164V74H251.334V63.164H249.334ZM250.334 73H243.962V75H250.334V73ZM244.962 74V71.48H242.962V74H244.962ZM243.074 71.0194C242.32 72.4718 240.83 73.324 238.202 73.324V75.324C241.285 75.324 243.635 74.2802 244.849 71.9406L243.074 71.0194ZM238.202 73.324C236.804 73.324 235.65 73.0801 234.709 72.6299L233.846 74.4341C235.113 75.0399 236.575 75.324 238.202 75.324V73.324ZM234.709 72.6299C233.745 72.1687 233.057 71.5744 232.597 70.8638L230.919 71.9522C231.61 73.0176 232.602 73.8393 233.846 74.4341L234.709 72.6299ZM232.613 70.8902C232.163 70.1469 231.93 69.2967 231.93 68.312H229.93C229.93 69.6313 230.248 70.8451 230.902 71.9258L232.613 70.8902ZM231.93 68.312C231.93 66.7635 232.5 65.6495 233.633 64.8427L232.474 63.2133C230.775 64.4225 229.93 66.1645 229.93 68.312H231.93ZM233.643 64.8361C234.806 63.9885 236.734 63.48 239.606 63.48V61.48C236.573 61.48 234.134 62.0035 232.465 63.2199L233.643 64.8361ZM239.606 63.48H243.494V61.48H239.606V63.48ZM244.492 62.422C244.419 61.1603 243.941 60.0852 242.967 59.3572C242.034 58.6594 240.781 58.384 239.354 58.384V60.384C240.566 60.384 241.323 60.6246 241.77 60.9588C242.176 61.2628 242.449 61.7357 242.495 62.538L244.492 62.422ZM239.354 58.384C238.305 58.384 237.252 58.5591 236.2 58.901L236.819 60.803C237.687 60.5209 238.53 60.384 239.354 60.384V58.384ZM236.222 58.8942C235.163 59.212 234.23 59.6722 233.444 60.2897L234.679 61.8623C235.237 61.4238 235.936 61.068 236.797 60.8098L236.222 58.8942ZM234.957 60.6316L232.653 55.9876L230.862 56.8764L233.166 61.5204L234.957 60.6316ZM232.312 57.264C233.279 56.6199 234.476 56.1082 235.924 55.7461L235.439 53.8059C233.815 54.2118 232.397 54.8041 231.203 55.5999L232.312 57.264ZM235.935 55.7435C237.415 55.3563 238.89 55.164 240.362 55.164V53.164C238.713 53.164 237.068 53.3797 235.429 53.8085L235.935 55.7435ZM240.11 71.004C241.071 71.004 241.958 70.7686 242.737 70.2703L241.659 68.5857C241.237 68.8554 240.733 69.004 240.11 69.004V71.004ZM242.737 70.2703C243.544 69.7535 244.106 68.9998 244.436 68.0704L242.551 67.4016C242.353 67.9602 242.051 68.3345 241.659 68.5857L242.737 70.2703ZM244.494 67.736V66.044H242.494V67.736H244.494ZM243.494 65.044H240.542V67.044H243.494V65.044ZM240.542 65.044C239.467 65.044 238.486 65.2163 237.748 65.7054C236.938 66.2424 236.554 67.0701 236.554 68.024H238.554C238.554 67.6579 238.667 67.4956 238.853 67.3726C239.111 67.2017 239.624 67.044 240.542 67.044V65.044ZM236.554 68.024C236.554 68.9184 236.913 69.6921 237.618 70.2489L238.857 68.6791C238.65 68.5159 238.554 68.3296 238.554 68.024H236.554ZM237.618 70.2489C238.305 70.7912 239.174 71.004 240.11 71.004V69.004C239.461 69.004 239.082 68.8568 238.857 68.6791L237.618 70.2489ZM274.321 54.488H275.321V53.488H274.321V54.488ZM274.321 74V75H275.321V74H274.321ZM267.481 74H266.481V75H267.481V74ZM267.481 59.924H268.481V58.924H267.481V59.924ZM262.549 59.924V58.924H261.596L261.55 59.8759L262.549 59.924ZM262.405 62.912L261.406 62.8639L261.405 62.8743L262.405 62.912ZM261.649 69.212L260.678 68.9728L261.649 69.212ZM259.633 73.1L260.33 73.8163L260.34 73.8071L259.633 73.1ZM252.469 74L251.47 73.9485L251.427 74.788L252.246 74.975L252.469 74ZM252.757 68.42L252.867 67.4261L251.813 67.309L251.758 68.3685L252.757 68.42ZM255.313 67.772L256.093 68.3967L255.313 67.772ZM256.105 65.864L257.088 66.0429L257.089 66.0378L256.105 65.864ZM256.393 62.624L257.392 62.6597L257.392 62.6594L256.393 62.624ZM256.681 54.488V53.488H255.715L255.681 54.4526L256.681 54.488ZM273.321 54.488V74H275.321V54.488H273.321ZM274.321 73H267.481V75H274.321V73ZM268.481 74V59.924H266.481V74H268.481ZM267.481 58.924H262.549V60.924H267.481V58.924ZM261.55 59.8759L261.406 62.8639L263.403 62.9601L263.547 59.9721L261.55 59.8759ZM261.405 62.8743C261.311 65.3801 261.063 67.4065 260.678 68.9728L262.619 69.4512C263.05 67.7055 263.306 65.5319 263.404 62.9497L261.405 62.8743ZM260.678 68.9728C260.301 70.5018 259.7 71.6181 258.925 72.3929L260.34 73.8071C261.437 72.7099 262.18 71.2341 262.619 69.4512L260.678 68.9728ZM258.935 72.3838C258.229 73.0712 257.22 73.468 255.781 73.468V75.468C257.605 75.468 259.164 74.9528 260.33 73.8162L258.935 72.3838ZM255.781 73.468C255.049 73.468 254.028 73.3299 252.691 73.025L252.246 74.975C253.646 75.2941 254.833 75.468 255.781 75.468V73.468ZM253.467 74.0515L253.755 68.4715L251.758 68.3685L251.47 73.9485L253.467 74.0515ZM252.646 69.4139C253.069 69.4608 253.412 69.492 253.621 69.492V67.492C253.541 67.492 253.308 67.4752 252.867 67.4261L252.646 69.4139ZM253.621 69.492C254.598 69.492 255.479 69.1642 256.093 68.3967L254.532 67.1473C254.378 67.3398 254.132 67.492 253.621 67.492V69.492ZM256.093 68.3967C256.608 67.7533 256.924 66.9492 257.088 66.0429L255.121 65.6851C254.997 66.3628 254.785 66.8307 254.532 67.1473L256.093 68.3967ZM257.089 66.0378C257.245 65.157 257.343 64.0253 257.392 62.6597L255.393 62.5883C255.346 63.9107 255.252 64.939 255.12 65.6902L257.089 66.0378ZM257.392 62.6594L257.68 54.5234L255.681 54.4526L255.393 62.5886L257.392 62.6594ZM256.681 55.488H274.321V53.488H256.681V55.488ZM290.365 60.536L290.375 59.536H290.365V60.536ZM296.305 62.264L296.941 61.4925L296.305 62.264ZM295.981 72.2L296.599 72.9867L296.6 72.9855L295.981 72.2ZM289.501 74L289.51 73H289.501V74ZM278.917 74H277.917V75H278.917V74ZM278.917 54.488V53.488H277.917V54.488H278.917ZM285.721 54.488H286.721V53.488H285.721V54.488ZM285.721 60.536H284.721V61.536H285.721V60.536ZM288.817 69.32L288.806 70.32H288.817V69.32ZM290.761 65.288L290.121 66.0562L290.761 65.288ZM288.817 64.712L288.845 63.7124L288.831 63.712H288.817V64.712ZM285.721 64.712V63.712H284.721V64.712H285.721ZM285.721 69.284H284.721V70.2724L285.71 70.2839L285.721 69.284ZM290.356 61.536C292.822 61.5588 294.543 62.1072 295.669 63.0355L296.941 61.4925C295.331 60.1648 293.093 59.5612 290.375 59.536L290.356 61.536ZM295.669 63.0355C296.765 63.939 297.357 65.2396 297.357 67.088H299.357C299.357 64.7604 298.582 62.845 296.941 61.4925L295.669 63.0355ZM297.357 67.088C297.357 68.9667 296.687 70.3711 295.362 71.4145L296.6 72.9855C298.444 71.5329 299.357 69.5293 299.357 67.088H297.357ZM295.364 71.4133C294.041 72.4514 292.131 73.0228 289.51 73L289.493 75C292.392 75.0252 294.802 74.3966 296.599 72.9867L295.364 71.4133ZM289.501 73H278.917V75H289.501V73ZM279.917 74V54.488H277.917V74H279.917ZM278.917 55.488H285.721V53.488H278.917V55.488ZM284.721 54.488V60.536H286.721V54.488H284.721ZM285.721 61.536H290.365V59.536H285.721V61.536ZM288.817 70.32C289.812 70.32 290.744 70.0978 291.431 69.4773C292.138 68.8392 292.409 67.942 292.409 66.98H290.409C290.409 67.578 290.248 67.8508 290.091 67.9927C289.915 68.1522 289.551 68.32 288.817 68.32V70.32ZM292.409 66.98C292.409 66.0298 292.137 65.1326 291.401 64.5198L290.121 66.0562C290.25 66.1634 290.409 66.3942 290.409 66.98H292.409ZM291.401 64.5198C290.726 63.957 289.819 63.7394 288.845 63.7124L288.79 65.7116C289.543 65.7326 289.932 65.899 290.121 66.0562L291.401 64.5198ZM288.817 63.712H285.721V65.712H288.817V63.712ZM284.721 64.712V69.284H286.721V64.712H284.721ZM285.71 70.2839L288.806 70.3199L288.829 68.3201L285.733 68.2841L285.71 70.2839Z" fill="white"/>
<path d="M105.553 80.2052L60.8485 80.2036C56.8622 79.9379 49.3566 77.1521 50.0858 68.1354C50.8151 59.1186 57.7552 56.7888 61.1341 56.7509C59.6156 53.0318 58.3554 45.9694 68.6517 41.3248C78.9481 36.6801 86.4763 44.4372 88.1846 49.0671C92.6338 47.2883 96.1604 47.3605 98.4921 48.7259C101.413 50.4364 102.596 53.982 102.934 56.2401C114.893 55.4435 118.708 61.6484 119.391 68.707C119.938 74.3539 112.5 80.2054 105.553 80.2052Z" fill="url(#paint0_radial)" fill-opacity="0.75"/>
<g filter="url(#filter0_bd)">
<path d="M52.284 57.6076L121.43 31.1743L107.642 88.1075L91.5948 78.3395L75.9885 92.8435L72.5578 67.4747L52.284 57.6076Z" fill="white" fill-opacity="0.1"/>
<path d="M121.43 31.1743L52.284 57.6076L72.5578 67.4747M121.43 31.1743L107.642 88.1075L91.5948 78.3395M121.43 31.1743L72.5578 67.4747M121.43 31.1743L83.5714 73.4555M83.5714 73.4555L75.9885 92.8435M83.5714 73.4555L91.5948 78.3395M75.9885 92.8435L72.5578 67.4747M75.9885 92.8435L91.5948 78.3395" stroke="#138FC5" stroke-width="3"/>
</g>
<defs>
<filter id="filter0_bd" x="0.74585" y="-18.858" width="166.814" height="167.158" filterUnits="userSpaceOnUse" color-interpolation-filters="sRGB">
<feFlood flood-opacity="0" result="BackgroundImageFix"/>
<feGaussianBlur in="BackgroundImage" stdDeviation="2"/>
<feComposite in2="SourceAlpha" operator="in" result="effect1_backgroundBlur"/>
<feColorMatrix in="SourceAlpha" type="matrix" values="0 0 0 0 0 0 0 0 0 0 0 0 0 0 0 0 0 0 127 0"/>
<feOffset dy="4"/>
<feGaussianBlur stdDeviation="22"/>
<feColorMatrix type="matrix" values="0 0 0 0 0 0 0 0 0 0 0 0 0 0 0 0 0 0 0.1 0"/>
<feBlend mode="normal" in2="effect1_backgroundBlur" result="effect2_dropShadow"/>
<feBlend mode="normal" in="SourceGraphic" in2="effect2_dropShadow" result="shape"/>
</filter>
<radialGradient id="paint0_radial" cx="0" cy="0" r="1" gradientUnits="userSpaceOnUse" gradientTransform="translate(66.0396 41.9433) rotate(40.5979) scale(55.199 94.966)">
<stop stop-color="#7EBAF5"/>
<stop offset="1" stop-color="#1E87F0"/>
</radialGradient>
</defs>
</svg>
